/vscmnt/brussel_pixiu_data/_data_brussel/112/vsc11236/PredSimResults/SUBJ09mtu3D/worker9.mot
version=1
nRows=7
nColumns=50
inDegrees=yes
endheader
                time	         pelvis_tilt	         pelvis_list	     pelvis_rotation	           pelvis_tx	           pelvis_ty	           pelvis_tz	       hip_flexion_r	     hip_adduction_r	      hip_rotation_r	        knee_angle_r	       ankle_angle_r	         mtp_angle_r	       hip_flexion_l	     hip_adduction_l	      hip_rotation_l	        knee_angle_l	       ankle_angle_l	         mtp_angle_l	    lumbar_extension	      lumbar_bending	     lumbar_rotation	 ercspn_r/activation	 intobl_r/activation	 extobl_r/activation	    abd_r/activation	    add_r/activation	hamstrings_r/activation	bifemsh_r/activation	glut_max_r/activation	iliopsoas_r/activation	rect_fem_r/activation	  vasti_r/activation	gastroc_r/activation	 soleus_r/activation	tib_ant_r/activation	 ercspn_l/activation	 intobl_l/activation	 extobl_l/activation	    abd_l/activation	    add_l/activation	hamstrings_l/activation	bifemsh_l/activation	glut_max_l/activation	iliopsoas_l/activation	rect_fem_l/activation	  vasti_l/activation	gastroc_l/activation	 soleus_l/activation	tib_ant_l/activation	
          1.26691796	         -4.54653908	         -0.90097377	          8.65062384	          1.57097827	          0.98806845	         -0.00327922	         28.97262209	         -1.84762194	         -9.37672159	         -5.56880373	          4.28812903	          0.24622667	        -13.99702091	         -2.56162719	         -5.13054918	        -10.18754187	          3.28571433	         37.29599512	        -13.36909873	         -1.17696520	         -6.89404109	          0.02704928	          0.15340966	          0.03157845	          0.00999999	          0.21506447	          0.07059446	          0.15672676	          0.08901684	          0.14339895	          0.01091595	          0.00999999	          0.01789763	          0.01466890	          0.31167442	          0.02911575	          0.00999999	          0.00999999	          0.02697365	          0.01211152	          0.02890167	          0.12512191	          0.01459485	          0.01008928	          0.00999999	          0.00999999	          0.29987840	          0.20905071	          0.01211152	
          1.27958714	         -4.58101900	         -1.00796746	          8.63415599	          1.59138832	          0.98580959	         -0.00247977	         28.85228025	         -1.68898583	         -9.54660416	         -7.33662644	          3.81888208	          0.21030271	        -14.59336306	         -2.91307279	         -5.60349060	        -11.04658684	          2.08607061	         38.89325357	        -12.84237254	         -0.76029992	         -7.10858681	          0.02233349	          0.12666414	          0.02607305	          0.08575832	          0.17809115	          0.07148893	          0.12940294	          0.12853941	          0.11839871	          0.00999999	          0.00999999	          0.01477735	          0.01211152	          0.35873932	          0.02403970	          0.00999999	          0.00999999	          0.02227105	          0.00999999	          0.02504088	          0.10330810	          0.01205038	          0.00999999	          0.00999999	          0.00999999	          0.27053197	          0.18524836	          0.00999999	
          1.29225632	         -4.59797901	         -1.12081269	          8.58310607	          1.61196984	          0.98392112	         -0.00159009	         28.63775484	         -1.51187025	         -9.68358516	         -8.96149811	          3.18587744	          0.19982606	        -14.94770983	         -3.29775100	         -6.09371738	        -12.36725468	          0.77233353	         40.39026903	        -12.31413563	         -0.33684014	         -7.29041247	          0.02026426	          0.10458146	          0.02152746	          0.14218938	          0.19288468	          0.06113265	          0.10684277	          0.17121263	          0.09775702	          0.00999999	          0.00999999	          0.01220106	          0.00999999	          0.40745426	          0.03969864	          0.00999999	          0.00999999	          0.01838831	          0.00999999	          0.02067524	          0.08529731	          0.00999999	          0.00999999	          0.00999999	          0.01159602	          0.22336730	          0.15295207	          0.00999999	
          1.30492550	         -4.59884690	         -1.23298546	          8.49994041	          1.63234411	          0.98263180	         -0.00059661	         28.49752754	         -1.33133573	         -9.78266455	        -10.72960421	          2.60711019	          0.16297957	        -14.94408125	         -3.72058165	         -6.59028306	        -14.31423594	         -0.61392622	         41.59868643	        -11.82910981	          0.08676414	         -7.43905359	          0.03591383	          0.08634867	          0.01777435	          0.19552846	          0.24726911	          0.05603570	          0.08821575	          0.19472968	          0.08071401	          0.00999999	          0.06619044	          0.01007392	          0.00999999	          0.42294381	          0.09261603	          0.00999999	          0.00999999	          0.01518248	          0.05640452	          0.02231052	          0.07042654	          0.00999999	          0.00999999	          0.00999999	          0.00999999	          0.18442534	          0.12628634	          0.00999999	
          1.31759468	         -4.58535150	         -1.34042283	          8.39063799	          1.65228525	          0.98209699	          0.00047883	         28.44729090	         -1.15357502	         -9.82688605	        -12.70353210	          2.39869593	          0.12216307	        -14.50112257	         -4.18665743	         -7.11987394	        -16.99723954	         -2.03100164	         42.25045141	        -11.40858310	          0.50718285	         -7.55662592	          0.03267019	          0.07129461	          0.01467556	          0.21967361	          0.27926696	          0.05172297	          0.07283618	          0.20773176	          0.06664229	          0.00999999	          0.17390765	          0.00999999	          0.00999999	          0.41831443	          0.10731736	          0.00999999	          0.00999999	          0.01253556	          0.14975693	          0.01908301	          0.05814834	          0.00999999	          0.02129025	          0.00999999	          0.00999999	          0.15227254	          0.10426952	          0.00999999	
          1.33026386	         -4.56088809	         -1.42581254	          8.25270512	          1.67166867	          0.98243760	          0.00160094	         28.36773350	         -0.97813652	         -9.82791168	        -14.64819696	          2.54453783	          0.08814495	        -13.57143238	         -4.69187645	         -7.72888478	        -20.48757837	         -3.39573810	         41.92275581	        -11.06411892	          0.90683465	         -7.63937212	          0.02697445	          0.05886507	          0.01211702	          0.22356489	          0.31411180	          0.05203991	          0.06013788	          0.20115794	          0.05502384	          0.00999999	          0.20849911	          0.00999999	          0.00999999	          0.38665083	          0.10227636	          0.00999999	          0.00999999	          0.01035010	          0.20824322	          0.01575609	          0.04801073	          0.00999999	          0.01776628	          0.00999999	          0.00999999	          0.12572527	          0.08609112	          0.00999999	
          1.34293304	         -4.52724411	         -1.47111008	          8.08213750	          1.69049003	          0.98360984	          0.00273478	         28.16349070	         -0.81141722	         -9.79870504	        -16.38434756	          2.98794245	          0.07514882	        -12.17725397	         -5.23511118	         -8.41318030	        -24.69343893	         -4.89129201	         40.64043122	        -10.79429810	          1.26735412	         -7.68191887	          0.02227171	          0.04860251	          0.01000453	          0.22179201	          0.31001871	          0.05575665	          0.04965341	          0.18898081	          0.04543096	          0.00999999	          0.24309342	          0.00999999	          0.00999999	          0.33489886	          0.09519817	          0.00999999	          0.00999999	          0.00999999	          0.25264208	          0.02551659	          0.04862688	          0.00999999	          0.01466890	          0.00999999	          0.00999999	          0.10380626	          0.07108195	          0.01456456	
